<svg version="1.1" id="Layer_1" xmlns="http://www.w3.org/2000/svg" xmlns:xlink="http://www.w3.org/1999/xlink" x="0px" y="0px"
	 width="100%" viewBox="0 0 1200 1491" enable-background="new 0 0 1200 1491" xml:space="preserve">
<path fill="#000000" opacity="1.000000" stroke="none" 
	d="
M0.999996,1120.000000 
	C1.000000,747.044678 1.000000,374.089325 1.000000,1.066998 
	C400.907410,1.066998 800.814880,1.066998 1201.000000,1.066998 
	C1201.000000,358.697540 1201.000000,716.395142 1200.578003,1074.555664 
	C1199.770508,1073.339478 1199.187012,1071.677979 1199.036377,1069.977905 
	C1198.569458,1064.709351 1198.521851,1059.393799 1197.852051,1054.155151 
	C1196.034302,1039.939941 1194.100342,1025.736938 1191.986938,1011.562622 
	C1189.681274,996.099976 1187.689941,980.557800 1184.529907,965.263428 
	C1180.571045,946.102539 1175.940063,927.058105 1170.912354,908.146057 
	C1164.423096,883.736450 1155.751953,860.052856 1145.029785,837.158752 
	C1135.857422,817.574036 1125.334839,798.754761 1112.588989,781.243835 
	C1099.240845,762.905579 1084.405029,745.968750 1067.484375,730.725037 
	C1052.229004,716.981567 1035.853638,704.944031 1018.557678,694.002502 
	C998.406250,681.254456 977.005676,670.916931 954.924988,662.177185 
	C938.254211,655.578735 921.093933,650.091858 903.883667,645.018616 
	C888.118103,640.371216 872.004883,636.894958 856.022644,632.993774 
	C848.379456,631.128235 840.684875,629.473694 833.170410,627.435608 
	C843.488586,618.315918 854.169739,610.004028 863.665710,600.507080 
	C873.282898,590.888855 881.789246,580.151245 890.672852,569.810120 
	C906.008362,551.958618 918.088013,531.902405 928.842407,511.128113 
	C941.362366,486.943207 951.082397,461.511871 956.777893,434.856232 
	C960.747620,416.277435 963.645630,397.402374 965.755310,378.518066 
	C967.062927,366.812653 966.387878,354.826202 965.895874,342.995300 
	C965.357056,330.037354 964.231201,317.090851 962.953674,304.179657 
	C960.999023,284.425171 955.996521,265.321014 950.135559,246.398346 
	C942.090759,220.424774 930.792480,195.894623 916.822632,172.674850 
	C902.718933,149.232437 886.281982,127.458191 866.689514,108.224808 
	C861.138855,102.775894 855.571228,97.315033 849.666504,92.262802 
	C840.715637,84.604347 831.755432,76.902016 822.282837,69.918770 
	C795.893921,50.464920 767.200073,34.990986 736.242432,24.344744 
	C718.719604,18.318653 700.523071,13.962072 682.350830,10.203255 
	C667.372498,7.105068 652.028870,4.877395 636.765991,4.255821 
	C612.531311,3.268871 588.151917,3.098811 564.193848,8.062068 
	C546.932556,11.638000 529.586670,15.093575 512.663330,19.944944 
	C488.338531,26.918045 465.421906,37.489571 443.459686,50.120777 
	C418.721588,64.348518 395.910400,81.217941 375.600128,101.179916 
	C363.996948,112.584160 353.501465,125.162346 342.991333,137.620361 
	C328.697784,154.562958 317.195374,173.442261 307.063934,193.084579 
	C297.264832,212.082581 289.355255,231.904572 283.197968,252.415771 
	C275.398010,278.399048 270.523804,304.991058 269.254700,331.988281 
	C268.208984,354.233887 268.622681,376.550690 271.775452,398.812500 
	C274.448456,417.686615 278.397247,436.164734 283.786896,454.380920 
	C291.862762,481.676086 303.343597,507.490540 317.999756,531.885742 
	C331.254974,553.948975 346.491699,574.549011 364.544647,592.917725 
	C374.021179,602.560059 384.160889,611.550537 393.588348,620.901123 
	C389.452637,621.632019 385.724670,622.270386 382.007599,622.967041 
	C362.767731,626.572998 343.293335,629.256775 324.354279,634.053162 
	C302.014404,639.710876 279.724579,646.102966 258.185028,654.224365 
	C238.947922,661.477600 220.095108,670.359741 202.277527,680.616211 
	C179.290695,693.848267 158.231964,710.064758 140.427643,730.066589 
	C134.498230,736.727844 128.145065,743.049194 122.627159,750.032837 
	C99.227966,779.647644 82.109612,812.873718 68.189178,847.739746 
	C61.675438,864.054382 56.496586,880.914429 51.035187,897.632690 
	C46.791355,910.623840 42.616528,923.665955 39.171452,936.883606 
	C32.196636,963.643738 25.510334,990.484619 19.155874,1017.398621 
	C15.639196,1032.293335 12.528572,1047.323608 10.147574,1062.436523 
	C7.250694,1080.824097 5.334876,1099.365479 2.892147,1117.826904 
	C2.787084,1118.620850 1.654116,1119.278687 0.999996,1120.000000 
z"/>
<path fill="#1E4A85" opacity="1.000000" stroke="none" 
	d="
M0.999996,1120.468628 
	C1.654116,1119.278687 2.787084,1118.620850 2.892147,1117.826904 
	C5.334876,1099.365479 7.250694,1080.824097 10.147574,1062.436523 
	C12.528572,1047.323608 15.639196,1032.293335 19.155874,1017.398621 
	C25.510334,990.484619 32.196636,963.643738 39.171452,936.883606 
	C42.616528,923.665955 46.791355,910.623840 51.035187,897.632690 
	C56.496586,880.914429 61.675438,864.054382 68.189178,847.739746 
	C82.109612,812.873718 99.227966,779.647644 122.627159,750.032837 
	C128.145065,743.049194 134.498230,736.727844 140.427643,730.066589 
	C158.231964,710.064758 179.290695,693.848267 202.277527,680.616211 
	C220.095108,670.359741 238.947922,661.477600 258.185028,654.224365 
	C279.724579,646.102966 302.014404,639.710876 324.354279,634.053162 
	C343.293335,629.256775 362.767731,626.572998 382.007599,622.967041 
	C385.724670,622.270386 389.452637,621.632019 393.927734,620.998535 
	C395.261597,621.338623 395.916534,621.558105 396.414581,621.968140 
	C414.307861,636.699951 433.630493,649.298279 453.897675,660.940308 
	C460.059601,680.096252 466.202850,698.829468 472.225708,717.195496 
	C483.074554,706.381958 493.579376,695.911377 504.281738,685.243835 
	C503.696198,684.519531 502.666077,683.245239 502.045441,681.903076 
	C515.288391,685.560242 528.121887,689.285339 540.796326,693.300293 
	C529.206116,705.017639 518.116699,716.820129 506.182281,727.695374 
	C501.119141,732.309143 500.812500,736.684082 502.570312,742.278564 
	C502.766693,742.903564 502.950226,743.539185 503.061981,744.183289 
	C506.426514,763.574768 509.676453,782.986816 513.168335,802.355225 
	C516.347778,819.990356 519.874084,837.562744 523.087585,855.192017 
	C525.890259,870.567749 528.355347,886.005249 531.183350,901.376160 
	C533.612549,914.579529 536.489014,927.700745 538.899902,940.907227 
	C541.180237,953.398499 542.974304,965.978333 545.234009,978.473633 
	C547.693237,992.071960 550.581726,1005.592651 553.032104,1019.192444 
	C556.522644,1038.564941 559.700745,1057.993530 563.170044,1077.369873 
	C566.006470,1093.211792 569.076477,1109.011963 572.037476,1124.831665 
	C574.645569,1138.765869 577.311646,1152.689575 579.831055,1166.639771 
	C582.319397,1180.417603 584.623413,1194.228638 587.076965,1208.013062 
	C587.909607,1212.690918 588.951599,1217.331787 589.897949,1221.989502 
	C595.642029,1203.892822 600.207397,1185.777100 605.128479,1167.758545 
	C612.575562,1140.490601 620.392212,1113.323730 627.838867,1086.055664 
	C660.254150,967.357361 692.572388,848.632629 725.049927,729.951416 
	C726.082031,726.179932 725.288635,723.948975 722.593140,721.325989 
	C713.043274,712.033264 703.761353,702.465271 694.737976,692.807678 
	C707.808472,688.856262 720.518921,685.098755 733.149658,681.707214 
	C732.230286,683.448608 731.390686,684.823914 731.063110,685.360474 
	C741.795837,696.141479 752.181946,706.574402 762.668274,717.107910 
	C763.010986,716.344971 763.633911,715.223206 764.034058,714.027039 
	C769.463928,697.797180 774.877869,681.561951 780.242493,665.310486 
	C780.700195,663.924011 780.778687,662.412292 781.028870,660.998291 
	C781.024414,661.037720 780.945496,661.029236 781.163086,661.004150 
	C781.641235,660.811890 781.802185,660.576721 782.159851,660.064453 
	C797.859192,649.896240 813.255981,639.927124 828.676575,629.994873 
	C830.042969,629.114685 831.564209,628.474915 833.013550,627.723511 
	C840.684875,629.473694 848.379456,631.128235 856.022644,632.993774 
	C872.004883,636.894958 888.118103,640.371216 903.883667,645.018616 
	C921.093933,650.091858 938.254211,655.578735 954.924988,662.177185 
	C977.005676,670.916931 998.406250,681.254456 1018.557678,694.002502 
	C1035.853638,704.944031 1052.229004,716.981567 1067.484375,730.725037 
	C1084.405029,745.968750 1099.240845,762.905579 1112.588989,781.243835 
	C1125.334839,798.754761 1135.857422,817.574036 1145.029785,837.158752 
	C1155.751953,860.052856 1164.423096,883.736450 1170.912354,908.146057 
	C1175.940063,927.058105 1180.571045,946.102539 1184.529907,965.263428 
	C1187.689941,980.557800 1189.681274,996.099976 1191.986938,1011.562622 
	C1194.100342,1025.736938 1196.034302,1039.939941 1197.852051,1054.155151 
	C1198.521851,1059.393799 1198.569458,1064.709351 1199.036377,1069.977905 
	C1199.187012,1071.677979 1199.770508,1073.339478 1200.578003,1075.009277 
	C1201.000000,1105.687622 1201.000000,1136.375122 1200.582520,1167.502930 
	C1199.780396,1168.955078 1199.200928,1169.937500 1199.040894,1170.983887 
	C1196.977417,1184.481934 1195.588257,1198.116333 1192.827637,1211.467896 
	C1186.923462,1240.022949 1176.950562,1267.114136 1162.786133,1292.740112 
	C1146.472046,1322.255127 1124.740601,1347.166626 1099.360474,1368.953857 
	C1080.309814,1385.307739 1059.145142,1398.749878 1036.971069,1410.502930 
	C1014.040833,1422.657104 990.184875,1432.840210 965.531677,1440.828003 
	C944.568054,1447.620361 923.253845,1453.419678 901.893799,1458.870850 
	C885.013794,1463.178711 867.934082,1466.926514 850.752686,1469.775269 
	C828.492004,1473.466187 806.059814,1476.155029 783.667725,1479.010132 
	C768.781677,1480.908325 753.857544,1482.575073 738.912048,1483.919189 
	C724.418762,1485.222656 709.885620,1486.149170 695.353394,1486.935059 
	C679.292603,1487.803345 663.212524,1488.900879 647.141602,1488.888306 
	C598.190308,1488.849976 549.239014,1488.363770 500.288544,1487.948364 
	C493.001648,1487.886475 485.708313,1487.416992 478.437439,1486.875000 
	C462.290649,1485.671387 446.156006,1484.305176 430.016876,1482.999390 
	C421.447266,1482.306030 412.837128,1481.924805 404.318146,1480.833618 
	C385.522736,1478.426392 366.733582,1475.911743 348.017578,1472.960938 
	C331.762665,1470.398071 315.478760,1467.758423 299.448120,1464.099243 
	C278.418549,1459.299194 257.314148,1454.429565 236.812653,1447.819702 
	C213.934494,1440.443359 191.364578,1431.850342 169.294922,1422.318237 
	C154.354568,1415.865112 140.264633,1407.286743 126.236816,1398.917358 
	C108.911331,1388.580688 93.197166,1375.944458 78.637100,1362.005737 
	C71.848503,1355.506958 65.821915,1348.195190 59.624603,1341.099243 
	C43.055157,1322.127075 30.616030,1300.491455 21.267876,1277.317017 
	C11.376206,1252.795166 5.081722,1227.174194 2.906203,1200.675537 
	C2.829225,1199.737915 1.660096,1198.889771 0.999995,1198.000000 
	C1.000000,1172.312378 1.000000,1146.624878 0.999996,1120.468628 
M552.145813,1183.343750 
	C526.553345,1042.572021 500.960907,901.800415 475.103729,759.572632 
	C469.356720,765.157898 464.923553,769.466248 459.849365,774.397644 
	C458.635132,771.474792 457.781891,769.722839 457.166443,767.891052 
	C452.710327,754.628418 448.303650,741.349182 443.878693,728.076111 
	C435.656677,703.413208 427.386383,678.766174 419.261871,654.071167 
	C418.095001,650.524536 416.679108,649.139343 412.505249,649.659973 
	C378.578033,653.891907 344.979004,659.754089 311.966553,668.762024 
	C280.006927,677.482605 249.218842,689.130005 220.503662,705.815552 
	C184.451279,726.764526 154.949524,754.686646 132.270615,789.706482 
	C112.671104,819.971252 98.500435,852.809570 86.926376,886.821045 
	C71.178490,933.097717 59.095318,980.402466 48.372139,1028.040894 
	C38.039196,1073.945801 30.970036,1120.258057 31.815367,1167.584839 
	C32.270641,1193.073975 35.233837,1218.042480 42.134972,1242.553101 
	C54.431332,1286.225952 78.433510,1322.328979 113.138557,1351.316162 
	C139.847672,1373.624756 170.016129,1390.174805 202.161789,1403.205200 
	C247.169739,1421.449463 294.057434,1432.816528 341.801514,1440.968140 
	C393.384674,1449.775146 445.435547,1454.153931 497.631226,1456.847778 
	C521.560120,1458.082886 545.542847,1458.864014 569.499451,1458.824341 
	C600.124695,1458.773682 630.754517,1457.894043 661.370239,1456.969482 
	C680.650635,1456.387207 699.947571,1455.541016 719.167969,1453.968506 
	C747.511597,1451.649780 775.906555,1449.422974 804.078186,1445.651855 
	C862.661743,1437.809692 920.344666,1425.783691 975.668457,1404.255493 
	C1021.921936,1386.256836 1064.483032,1362.473633 1099.363159,1326.290283 
	C1123.470703,1301.281982 1141.196777,1272.503540 1152.866089,1239.886963 
	C1165.757568,1203.854858 1169.920654,1166.385376 1170.888306,1128.442261 
	C1171.129639,1118.977417 1170.455933,1109.479370 1169.971924,1100.008423 
	C1169.369141,1088.215576 1169.078613,1076.368774 1167.672729,1064.663086 
	C1164.815430,1040.871704 1161.711304,1017.094238 1157.968750,993.428162 
	C1150.344849,945.218201 1138.734375,898.091553 1118.395630,853.431580 
	C1100.412109,813.943359 1075.980591,779.269165 1043.223511,750.558716 
	C1017.158142,727.713318 987.870239,710.137024 956.239807,696.298523 
	C912.919922,677.345764 867.484741,665.768555 821.057556,657.611511 
	C816.422791,656.797241 814.639832,658.071777 813.188965,662.466064 
	C801.437256,698.058167 789.427551,733.565186 777.471863,769.089783 
	C777.020508,770.430908 776.318420,771.687622 775.408325,773.703247 
	C767.271545,765.764587 759.654053,758.332520 750.924072,749.815125 
	C695.384521,953.440247 640.305237,1155.377808 585.225952,1357.315308 
	C584.736023,1357.250854 584.246094,1357.186523 583.756165,1357.122070 
	C573.275635,1299.477173 562.795166,1241.832153 552.145813,1183.343750 
z"/>
<path fill="#000000" opacity="1.000000" stroke="none" 
	d="
M0.999995,1198.468628 
	C1.660096,1198.889771 2.829225,1199.737915 2.906203,1200.675537 
	C5.081722,1227.174194 11.376206,1252.795166 21.267876,1277.317017 
	C30.616030,1300.491455 43.055157,1322.127075 59.624603,1341.099243 
	C65.821915,1348.195190 71.848503,1355.506958 78.637100,1362.005737 
	C93.197166,1375.944458 108.911331,1388.580688 126.236816,1398.917358 
	C140.264633,1407.286743 154.354568,1415.865112 169.294922,1422.318237 
	C191.364578,1431.850342 213.934494,1440.443359 236.812653,1447.819702 
	C257.314148,1454.429565 278.418549,1459.299194 299.448120,1464.099243 
	C315.478760,1467.758423 331.762665,1470.398071 348.017578,1472.960938 
	C366.733582,1475.911743 385.522736,1478.426392 404.318146,1480.833618 
	C412.837128,1481.924805 421.447266,1482.306030 430.016876,1482.999390 
	C446.156006,1484.305176 462.290649,1485.671387 478.437439,1486.875000 
	C485.708313,1487.416992 493.001648,1487.886475 500.288544,1487.948364 
	C549.239014,1488.363770 598.190308,1488.849976 647.141602,1488.888306 
	C663.212524,1488.900879 679.292603,1487.803345 695.353394,1486.935059 
	C709.885620,1486.149170 724.418762,1485.222656 738.912048,1483.919189 
	C753.857544,1482.575073 768.781677,1480.908325 783.667725,1479.010132 
	C806.059814,1476.155029 828.492004,1473.466187 850.752686,1469.775269 
	C867.934082,1466.926514 885.013794,1463.178711 901.893799,1458.870850 
	C923.253845,1453.419678 944.568054,1447.620361 965.531677,1440.828003 
	C990.184875,1432.840210 1014.040833,1422.657104 1036.971069,1410.502930 
	C1059.145142,1398.749878 1080.309814,1385.307739 1099.360474,1368.953857 
	C1124.740601,1347.166626 1146.472046,1322.255127 1162.786133,1292.740112 
	C1176.950562,1267.114136 1186.923462,1240.022949 1192.827637,1211.467896 
	C1195.588257,1198.116333 1196.977417,1184.481934 1199.040894,1170.983887 
	C1199.200928,1169.937500 1199.780396,1168.955078 1200.582520,1167.971436 
	C1201.000000,1275.973999 1201.000000,1383.947998 1201.000000,1491.960938 
	C801.122192,1491.960938 401.244415,1491.960938 1.000000,1491.960938 
	C1.000000,1394.312744 1.000000,1296.625000 0.999995,1198.468628 
z"/>
<path fill="#FFB068" opacity="1.000000" stroke="none" 
	d="
M833.170410,627.435608 
	C831.564209,628.474915 830.042969,629.114685 828.676575,629.994873 
	C813.255981,639.927124 797.859192,649.896240 781.942505,660.092102 
	C781.142273,660.475525 780.981140,660.709045 780.945496,661.029236 
	C780.945496,661.029236 781.024414,661.037720 780.664185,661.023804 
	C764.612366,667.786926 748.920898,674.564087 733.229370,681.341187 
	C720.518921,685.098755 707.808472,688.856262 694.364563,692.813354 
	C692.970398,693.088135 692.297546,693.107178 691.650696,693.246887 
	C655.215149,701.113403 618.444397,703.284546 581.401245,699.128235 
	C567.860962,697.609009 554.433960,695.079224 540.955322,693.010498 
	C528.121887,689.285339 515.288391,685.560242 501.815918,681.663208 
	C485.410950,674.500000 469.644989,667.508789 453.879028,660.517517 
	C433.630493,649.298279 414.307861,636.699951 396.414581,621.968140 
	C395.916534,621.558105 395.261597,621.338623 394.340454,620.932800 
	C384.160889,611.550537 374.021179,602.560059 364.544647,592.917725 
	C346.491699,574.549011 331.254974,553.948975 317.999756,531.885742 
	C303.343597,507.490540 291.862762,481.676086 283.786896,454.380920 
	C278.397247,436.164734 274.448456,417.686615 271.775452,398.812500 
	C268.622681,376.550690 268.208984,354.233887 269.254700,331.988281 
	C270.523804,304.991058 275.398010,278.399048 283.197968,252.415771 
	C289.355255,231.904572 297.264832,212.082581 307.063934,193.084579 
	C317.195374,173.442261 328.697784,154.562958 342.991333,137.620361 
	C353.501465,125.162346 363.996948,112.584160 375.600128,101.179916 
	C395.910400,81.217941 418.721588,64.348518 443.459686,50.120777 
	C465.421906,37.489571 488.338531,26.918045 512.663330,19.944944 
	C529.586670,15.093575 546.932556,11.638000 564.193848,8.062068 
	C588.151917,3.098811 612.531311,3.268871 636.765991,4.255821 
	C652.028870,4.877395 667.372498,7.105068 682.350830,10.203255 
	C700.523071,13.962072 718.719604,18.318653 736.242432,24.344744 
	C767.200073,34.990986 795.893921,50.464920 822.282837,69.918770 
	C831.755432,76.902016 840.715637,84.604347 849.666504,92.262802 
	C855.571228,97.315033 861.138855,102.775894 866.689514,108.224808 
	C886.281982,127.458191 902.718933,149.232437 916.822632,172.674850 
	C930.792480,195.894623 942.090759,220.424774 950.135559,246.398346 
	C955.996521,265.321014 960.999023,284.425171 962.953674,304.179657 
	C964.231201,317.090851 965.357056,330.037354 965.895874,342.995300 
	C966.387878,354.826202 967.062927,366.812653 965.755310,378.518066 
	C963.645630,397.402374 960.747620,416.277435 956.777893,434.856232 
	C951.082397,461.511871 941.362366,486.943207 928.842407,511.128113 
	C918.088013,531.902405 906.008362,551.958618 890.672852,569.810120 
	C881.789246,580.151245 873.282898,590.888855 863.665710,600.507080 
	C854.169739,610.004028 843.488586,618.315918 833.170410,627.435608 
M821.268372,108.222488 
	C735.451050,39.578388 638.828979,17.974815 532.929443,46.420864 
	C441.996063,70.846802 375.321655,127.439919 332.708130,211.318665 
	C302.786072,270.216064 293.490601,333.056122 302.955994,398.352692 
	C314.646790,479.001343 352.136047,545.913757 414.889130,597.557739 
	C488.326416,657.994385 573.142151,681.110046 667.178406,666.781860 
	C746.736755,654.659668 812.498413,616.566040 863.431458,554.392700 
	C915.420532,490.930298 939.177185,417.633881 935.174683,335.488617 
	C933.836548,308.024536 928.946228,281.236267 920.491333,255.123764 
	C901.633545,196.882172 868.388306,148.272949 821.268372,108.222488 
z"/>
<path fill="#2E5E99" opacity="1.000000" stroke="none" 
	d="
M552.230225,1183.765503 
	C562.795166,1241.832153 573.275635,1299.477173 583.756165,1357.122070 
	C584.246094,1357.186523 584.736023,1357.250854 585.225952,1357.315308 
	C640.305237,1155.377808 695.384521,953.440247 750.924072,749.815125 
	C759.654053,758.332520 767.271545,765.764587 775.408325,773.703247 
	C776.318420,771.687622 777.020508,770.430908 777.471863,769.089783 
	C789.427551,733.565186 801.437256,698.058167 813.188965,662.466064 
	C814.639832,658.071777 816.422791,656.797241 821.057556,657.611511 
	C867.484741,665.768555 912.919922,677.345764 956.239807,696.298523 
	C987.870239,710.137024 1017.158142,727.713318 1043.223511,750.558716 
	C1075.980591,779.269165 1100.412109,813.943359 1118.395630,853.431580 
	C1138.734375,898.091553 1150.344849,945.218201 1157.968750,993.428162 
	C1161.711304,1017.094238 1164.815430,1040.871704 1167.672729,1064.663086 
	C1169.078613,1076.368774 1169.369141,1088.215576 1169.971924,1100.008423 
	C1170.455933,1109.479370 1171.129639,1118.977417 1170.888306,1128.442261 
	C1169.920654,1166.385376 1165.757568,1203.854858 1152.866089,1239.886963 
	C1141.196777,1272.503540 1123.470703,1301.281982 1099.363159,1326.290283 
	C1064.483032,1362.473633 1021.921936,1386.256836 975.668457,1404.255493 
	C920.344666,1425.783691 862.661743,1437.809692 804.078186,1445.651855 
	C775.906555,1449.422974 747.511597,1451.649780 719.167969,1453.968506 
	C699.947571,1455.541016 680.650635,1456.387207 661.370239,1456.969482 
	C630.754517,1457.894043 600.124695,1458.773682 569.499451,1458.824341 
	C545.542847,1458.864014 521.560120,1458.082886 497.631226,1456.847778 
	C445.435547,1454.153931 393.384674,1449.775146 341.801514,1440.968140 
	C294.057434,1432.816528 247.169739,1421.449463 202.161789,1403.205200 
	C170.016129,1390.174805 139.847672,1373.624756 113.138557,1351.316162 
	C78.433510,1322.328979 54.431332,1286.225952 42.134972,1242.553101 
	C35.233837,1218.042480 32.270641,1193.073975 31.815367,1167.584839 
	C30.970036,1120.258057 38.039196,1073.945801 48.372139,1028.040894 
	C59.095318,980.402466 71.178490,933.097717 86.926376,886.821045 
	C98.500435,852.809570 112.671104,819.971252 132.270615,789.706482 
	C154.949524,754.686646 184.451279,726.764526 220.503662,705.815552 
	C249.218842,689.130005 280.006927,677.482605 311.966553,668.762024 
	C344.979004,659.754089 378.578033,653.891907 412.505249,649.659973 
	C416.679108,649.139343 418.095001,650.524536 419.261871,654.071167 
	C427.386383,678.766174 435.656677,703.413208 443.878693,728.076111 
	C448.303650,741.349182 452.710327,754.628418 457.166443,767.891052 
	C457.781891,769.722839 458.635132,771.474792 459.849365,774.397644 
	C464.923553,769.466248 469.356720,765.157898 475.103729,759.572632 
	C500.960907,901.800415 526.553345,1042.572021 552.230225,1183.765503 
M221.289032,1160.816162 
	C232.700287,1116.613647 248.653244,1074.093262 268.977936,1033.238159 
	C274.983276,1021.166687 281.699890,1009.445862 288.216278,997.633789 
	C290.097076,994.224548 290.071808,991.721985 286.159515,989.997742 
	C284.950623,989.465027 283.848114,988.670654 282.741760,987.929260 
	C279.221283,985.569763 276.882568,986.166748 274.850433,990.154114 
	C266.458923,1006.619568 257.432922,1022.771545 249.372330,1039.393799 
	C227.092926,1085.337524 211.215836,1133.515137 200.429794,1183.382690 
	C193.415817,1215.810669 188.518036,1248.541992 186.903351,1281.723877 
	C186.426529,1291.522339 185.290741,1301.305176 185.202377,1311.102051 
	C185.088348,1323.743164 185.695999,1336.391846 186.084625,1349.034546 
	C186.117401,1350.100098 186.799194,1352.035156 187.255905,1352.058105 
	C190.992584,1352.247681 194.858032,1352.564331 198.435547,1351.749756 
	C199.653122,1351.472534 200.846313,1348.083862 200.879547,1346.097412 
	C201.093491,1333.307861 200.585236,1320.497681 201.073990,1307.723389 
	C201.760620,1289.778320 202.509766,1271.798340 204.306183,1253.941406 
	C207.444031,1222.750244 213.255951,1191.981567 221.289032,1160.816162 
M975.330750,1245.070312 
	C975.689941,1253.877075 976.146606,1262.681274 976.381165,1271.491333 
	C976.620178,1280.468628 977.018555,1289.466309 976.674377,1298.429199 
	C976.055603,1314.539795 974.962585,1330.632690 973.999695,1346.729004 
	C973.791260,1350.213135 975.111328,1352.081909 978.707703,1352.270508 
	C980.361877,1352.357300 981.996155,1352.771729 983.649170,1352.944580 
	C987.045898,1353.300171 988.888611,1352.124023 989.090027,1348.321411 
	C989.942993,1332.219482 991.439087,1316.139282 991.841248,1300.029663 
	C992.181335,1286.405762 991.499207,1272.746094 990.975281,1259.113525 
	C990.464539,1245.823120 990.431274,1232.434204 988.685181,1219.288086 
	C984.941223,1191.100342 981.119812,1162.868896 975.714844,1134.968140 
	C966.339905,1086.573853 951.025574,1039.912476 931.346741,994.707336 
	C927.606445,986.115234 927.595337,986.354980 918.814636,989.780579 
	C914.583862,991.431152 914.366455,993.319275 915.965393,997.298889 
	C923.724670,1016.611206 931.814087,1035.833252 938.516663,1055.519775 
	C959.340637,1116.683350 971.828918,1179.546021 975.330750,1245.070312 
z"/>
<path fill="#FFFFFF" opacity="1.000000" stroke="none" 
	d="
M540.796326,693.300354 
	C554.433960,695.079224 567.860962,697.609009 581.401245,699.128235 
	C618.444397,703.284546 655.215149,701.113403 691.650696,693.246887 
	C692.297546,693.107178 692.970398,693.088135 694.004517,693.007202 
	C703.761353,702.465271 713.043274,712.033264 722.593140,721.325989 
	C725.288635,723.948975 726.082031,726.179932 725.049927,729.951416 
	C692.572388,848.632629 660.254150,967.357361 627.838867,1086.055664 
	C620.392212,1113.323730 612.575562,1140.490601 605.128479,1167.758545 
	C600.207397,1185.777100 595.642029,1203.892822 589.897949,1221.989502 
	C588.951599,1217.331787 587.909607,1212.690918 587.076965,1208.013062 
	C584.623413,1194.228638 582.319397,1180.417603 579.831055,1166.639771 
	C577.311646,1152.689575 574.645569,1138.765869 572.037476,1124.831665 
	C569.076477,1109.011963 566.006470,1093.211792 563.170044,1077.369873 
	C559.700745,1057.993530 556.522644,1038.564941 553.032104,1019.192444 
	C550.581726,1005.592651 547.693237,992.071960 545.234009,978.473633 
	C542.974304,965.978333 541.180237,953.398499 538.899902,940.907227 
	C536.489014,927.700745 533.612549,914.579529 531.183350,901.376160 
	C528.355347,886.005249 525.890259,870.567749 523.087585,855.192017 
	C519.874084,837.562744 516.347778,819.990356 513.168335,802.355225 
	C509.676453,782.986816 506.426514,763.574768 503.061981,744.183289 
	C502.950226,743.539185 502.766693,742.903564 502.570312,742.278564 
	C500.812500,736.684082 501.119141,732.309143 506.182281,727.695374 
	C518.116699,716.820129 529.206116,705.017639 540.796326,693.300354 
z"/>
<path fill="#6061FC" opacity="1.000000" stroke="none" 
	d="
M733.149658,681.707214 
	C748.920898,674.564087 764.612366,667.786926 780.668579,660.984314 
	C780.778687,662.412292 780.700195,663.924011 780.242493,665.310486 
	C774.877869,681.561951 769.463928,697.797180 764.034058,714.027039 
	C763.633911,715.223206 763.010986,716.344971 762.668274,717.107910 
	C752.181946,706.574402 741.795837,696.141479 731.063110,685.360474 
	C731.390686,684.823914 732.230286,683.448608 733.149658,681.707214 
z"/>
<path fill="#6161FD" opacity="1.000000" stroke="none" 
	d="
M453.897675,660.940308 
	C469.644989,667.508789 485.410950,674.500000 501.406433,681.731079 
	C502.666077,683.245239 503.696198,684.519531 504.281738,685.243835 
	C493.579376,695.911377 483.074554,706.381958 472.225708,717.195496 
	C466.202850,698.829468 460.059601,680.096252 453.897675,660.940308 
z"/>
<path fill="#6061FC" opacity="1.000000" stroke="none" 
	d="
M781.163086,661.004150 
	C780.981140,660.709045 781.142273,660.475525 781.646362,660.301147 
	C781.802185,660.576721 781.641235,660.811890 781.163086,661.004150 
z"/>
<path fill="#FFD9B5" opacity="1.000000" stroke="none" 
	d="
M821.547119,108.443787 
	C868.388306,148.272949 901.633545,196.882172 920.491333,255.123764 
	C928.946228,281.236267 933.836548,308.024536 935.174683,335.488617 
	C939.177185,417.633881 915.420532,490.930298 863.431458,554.392700 
	C812.498413,616.566040 746.736755,654.659668 667.178406,666.781860 
	C573.142151,681.110046 488.326416,657.994385 414.889130,597.557739 
	C352.136047,545.913757 314.646790,479.001343 302.955994,398.352692 
	C293.490601,333.056122 302.786072,270.216064 332.708130,211.318665 
	C375.321655,127.439919 441.996063,70.846802 532.929443,46.420864 
	C638.828979,17.974815 735.451050,39.578388 821.547119,108.443787 
z"/>
<path fill="#1E4A85" opacity="1.000000" stroke="none" 
	d="
M221.191467,1161.214355 
	C213.255951,1191.981567 207.444031,1222.750244 204.306183,1253.941406 
	C202.509766,1271.798340 201.760620,1289.778320 201.073990,1307.723389 
	C200.585236,1320.497681 201.093491,1333.307861 200.879547,1346.097412 
	C200.846313,1348.083862 199.653122,1351.472534 198.435547,1351.749756 
	C194.858032,1352.564331 190.992584,1352.247681 187.255905,1352.058105 
	C186.799194,1352.035156 186.117401,1350.100098 186.084625,1349.034546 
	C185.695999,1336.391846 185.088348,1323.743164 185.202377,1311.102051 
	C185.290741,1301.305176 186.426529,1291.522339 186.903351,1281.723877 
	C188.518036,1248.541992 193.415817,1215.810669 200.429794,1183.382690 
	C211.215836,1133.515137 227.092926,1085.337524 249.372330,1039.393799 
	C257.432922,1022.771545 266.458923,1006.619568 274.850433,990.154114 
	C276.882568,986.166748 279.221283,985.569763 282.741760,987.929260 
	C283.848114,988.670654 284.950623,989.465027 286.159515,989.997742 
	C290.071808,991.721985 290.097076,994.224548 288.216278,997.633789 
	C281.699890,1009.445862 274.983276,1021.166687 268.977936,1033.238159 
	C248.653244,1074.093262 232.700287,1116.613647 221.191467,1161.214355 
z"/>
<path fill="#1E4A85" opacity="1.000000" stroke="none" 
	d="
M975.262695,1244.606812 
	C971.828918,1179.546021 959.340637,1116.683350 938.516663,1055.519775 
	C931.814087,1035.833252 923.724670,1016.611206 915.965393,997.298889 
	C914.366455,993.319275 914.583862,991.431152 918.814636,989.780579 
	C927.595337,986.354980 927.606445,986.115234 931.346741,994.707336 
	C951.025574,1039.912476 966.339905,1086.573853 975.714844,1134.968140 
	C981.119812,1162.868896 984.941223,1191.100342 988.685181,1219.288086 
	C990.431274,1232.434204 990.464539,1245.823120 990.975281,1259.113525 
	C991.499207,1272.746094 992.181335,1286.405762 991.841248,1300.029663 
	C991.439087,1316.139282 989.942993,1332.219482 989.090027,1348.321411 
	C988.888611,1352.124023 987.045898,1353.300171 983.649170,1352.944580 
	C981.996155,1352.771729 980.361877,1352.357300 978.707703,1352.270508 
	C975.111328,1352.081909 973.791260,1350.213135 973.999695,1346.729004 
	C974.962585,1330.632690 976.055603,1314.539795 976.674377,1298.429199 
	C977.018555,1289.466309 976.620178,1280.468628 976.381165,1271.491333 
	C976.146606,1262.681274 975.689941,1253.877075 975.262695,1244.606812 
z"/>
</svg>